<svg width="1482" height="370" viewBox="0 0 1482 370" fill="none" xmlns="http://www.w3.org/2000/svg">
<path d="M246.727 297.734V296.258C246.727 290.68 247.523 285.547 249.117 280.859C250.711 276.125 253.055 272.023 256.148 268.555C259.242 265.086 263.062 262.391 267.609 260.469C272.156 258.5 277.406 257.516 283.359 257.516C289.359 257.516 294.633 258.5 299.18 260.469C303.773 262.391 307.617 265.086 310.711 268.555C313.805 272.023 316.148 276.125 317.742 280.859C319.336 285.547 320.133 290.68 320.133 296.258V297.734C320.133 303.266 319.336 308.398 317.742 313.133C316.148 317.82 313.805 321.922 310.711 325.438C307.617 328.906 303.797 331.602 299.25 333.523C294.703 335.445 289.453 336.406 283.5 336.406C277.547 336.406 272.273 335.445 267.68 333.523C263.086 331.602 259.242 328.906 256.148 325.438C253.055 321.922 250.711 317.82 249.117 313.133C247.523 308.398 246.727 303.266 246.727 297.734ZM270.422 296.258V297.734C270.422 300.594 270.633 303.266 271.055 305.75C271.477 308.234 272.18 310.414 273.164 312.289C274.148 314.117 275.484 315.547 277.172 316.578C278.859 317.609 280.969 318.125 283.5 318.125C285.984 318.125 288.047 317.609 289.688 316.578C291.375 315.547 292.711 314.117 293.695 312.289C294.68 310.414 295.383 308.234 295.805 305.75C296.227 303.266 296.438 300.594 296.438 297.734V296.258C296.438 293.492 296.227 290.891 295.805 288.453C295.383 285.969 294.68 283.789 293.695 281.914C292.711 279.992 291.375 278.492 289.688 277.414C288 276.336 285.891 275.797 283.359 275.797C280.875 275.797 278.789 276.336 277.102 277.414C275.461 278.492 274.148 279.992 273.164 281.914C272.18 283.789 271.477 285.969 271.055 288.453C270.633 290.891 270.422 293.492 270.422 296.258ZM330.891 227H354.586V316.297L352.125 335H330.891V227ZM401.273 296.117V297.594C401.273 303.359 400.688 308.609 399.516 313.344C398.344 318.078 396.539 322.18 394.102 325.648C391.664 329.07 388.594 331.719 384.891 333.594C381.188 335.469 376.805 336.406 371.742 336.406C367.148 336.406 363.211 335.422 359.93 333.453C356.648 331.438 353.906 328.672 351.703 325.156C349.5 321.594 347.719 317.492 346.359 312.852C345 308.164 343.922 303.148 343.125 297.805V296.047C343.922 290.75 345 285.781 346.359 281.141C347.719 276.453 349.5 272.352 351.703 268.836C353.906 265.273 356.625 262.508 359.859 260.539C363.141 258.523 367.055 257.516 371.602 257.516C376.711 257.516 381.117 258.477 384.82 260.398C388.57 262.32 391.664 265.016 394.102 268.484C396.539 271.953 398.344 276.031 399.516 280.719C400.688 285.406 401.273 290.539 401.273 296.117ZM377.578 297.594V296.117C377.578 293.352 377.414 290.75 377.086 288.312C376.758 285.875 376.172 283.719 375.328 281.844C374.484 279.969 373.289 278.492 371.742 277.414C370.195 276.336 368.18 275.797 365.695 275.797C363.164 275.797 361.031 276.219 359.297 277.062C357.609 277.906 356.25 279.125 355.219 280.719C354.234 282.266 353.531 284.188 353.109 286.484C352.688 288.734 352.5 291.289 352.547 294.148V299.703C352.453 303.594 352.805 306.922 353.602 309.688C354.398 312.453 355.781 314.562 357.75 316.016C359.719 317.469 362.414 318.195 365.836 318.195C368.367 318.195 370.406 317.703 371.953 316.719C373.547 315.734 374.742 314.328 375.539 312.5C376.336 310.672 376.875 308.492 377.156 305.961C377.438 303.43 377.578 300.641 377.578 297.594ZM559.477 258.922V275.375H513.633V258.922H559.477ZM523.266 240.008H546.961V310.18C546.961 312.195 547.195 313.766 547.664 314.891C548.133 315.969 548.93 316.742 550.055 317.211C551.227 317.633 552.773 317.844 554.695 317.844C556.055 317.844 557.18 317.82 558.07 317.773C558.961 317.68 559.805 317.562 560.602 317.422V334.367C558.586 335.023 556.477 335.516 554.273 335.844C552.07 336.219 549.727 336.406 547.242 336.406C542.18 336.406 537.844 335.609 534.234 334.016C530.672 332.422 527.953 329.914 526.078 326.492C524.203 323.07 523.266 318.617 523.266 313.133V240.008ZM593.93 258.922V335H570.164V258.922H593.93ZM568.758 239.305C568.758 235.93 569.977 233.164 572.414 231.008C574.852 228.852 578.016 227.773 581.906 227.773C585.797 227.773 588.961 228.852 591.398 231.008C593.836 233.164 595.055 235.93 595.055 239.305C595.055 242.68 593.836 245.445 591.398 247.602C588.961 249.758 585.797 250.836 581.906 250.836C578.016 250.836 574.852 249.758 572.414 247.602C569.977 245.445 568.758 242.68 568.758 239.305ZM640.688 318.125C642.891 318.125 644.766 317.727 646.312 316.93C647.906 316.086 649.102 314.914 649.898 313.414C650.742 311.867 651.141 310.016 651.094 307.859H673.383C673.43 313.578 672.023 318.594 669.164 322.906C666.352 327.172 662.508 330.5 657.633 332.891C652.805 335.234 647.344 336.406 641.25 336.406C635.297 336.406 630.094 335.445 625.641 333.523C621.188 331.555 617.461 328.836 614.461 325.367C611.508 321.852 609.281 317.75 607.781 313.062C606.328 308.375 605.602 303.289 605.602 297.805V296.188C605.602 290.703 606.328 285.617 607.781 280.93C609.281 276.195 611.508 272.094 614.461 268.625C617.461 265.109 621.164 262.391 625.57 260.469C630.023 258.5 635.203 257.516 641.109 257.516C647.438 257.516 653.016 258.711 657.844 261.102C662.719 263.492 666.539 266.961 669.305 271.508C672.07 276.055 673.43 281.562 673.383 288.031H651.094C651.141 285.734 650.789 283.672 650.039 281.844C649.289 280.016 648.117 278.562 646.523 277.484C644.977 276.359 642.984 275.797 640.547 275.797C638.109 275.797 636.141 276.336 634.641 277.414C633.141 278.492 631.992 279.992 631.195 281.914C630.445 283.789 629.93 285.945 629.648 288.383C629.414 290.82 629.297 293.422 629.297 296.188V297.805C629.297 300.617 629.414 303.266 629.648 305.75C629.93 308.188 630.469 310.344 631.266 312.219C632.062 314.047 633.211 315.5 634.711 316.578C636.211 317.609 638.203 318.125 640.688 318.125ZM763.875 254.141L738.914 335H712.406L750.023 232.625H766.828L763.875 254.141ZM784.547 335L759.516 254.141L756.281 232.625H773.297L811.125 335H784.547ZM783.562 296.82V315.875H731.039V296.82H783.562ZM841.43 277.766V335H817.734V258.922H839.883L841.43 277.766ZM863.93 258.359L863.508 280.367C862.57 280.273 861.305 280.156 859.711 280.016C858.117 279.875 856.781 279.805 855.703 279.805C852.938 279.805 850.547 280.133 848.531 280.789C846.562 281.398 844.922 282.336 843.609 283.602C842.344 284.82 841.406 286.367 840.797 288.242C840.234 290.117 839.977 292.297 840.023 294.781L835.734 291.969C835.734 286.859 836.227 282.219 837.211 278.047C838.242 273.828 839.695 270.195 841.57 267.148C843.445 264.055 845.719 261.688 848.391 260.047C851.062 258.359 854.062 257.516 857.391 257.516C858.562 257.516 859.711 257.586 860.836 257.727C862.008 257.867 863.039 258.078 863.93 258.359ZM895.992 275.023V335H872.297V258.922H894.516L895.992 275.023ZM893.109 294.359L887.695 294.5C887.695 289.156 888.328 284.234 889.594 279.734C890.859 275.234 892.734 271.32 895.219 267.992C897.703 264.664 900.75 262.086 904.359 260.258C908.016 258.43 912.234 257.516 917.016 257.516C920.344 257.516 923.367 258.031 926.086 259.062C928.805 260.047 931.148 261.617 933.117 263.773C935.086 265.883 936.586 268.648 937.617 272.07C938.695 275.445 939.234 279.5 939.234 284.234V335H915.539V287.258C915.539 284.023 915.164 281.586 914.414 279.945C913.711 278.305 912.68 277.203 911.32 276.641C909.961 276.078 908.297 275.797 906.328 275.797C904.266 275.797 902.414 276.266 900.773 277.203C899.133 278.141 897.727 279.453 896.555 281.141C895.43 282.781 894.562 284.727 893.953 286.977C893.391 289.227 893.109 291.688 893.109 294.359ZM936.562 294.359L929.953 294.5C929.953 289.156 930.539 284.234 931.711 279.734C932.93 275.234 934.734 271.32 937.125 267.992C939.562 264.664 942.586 262.086 946.195 260.258C949.805 258.43 954 257.516 958.781 257.516C962.25 257.516 965.438 258.031 968.344 259.062C971.25 260.094 973.758 261.758 975.867 264.055C977.977 266.352 979.617 269.398 980.789 273.195C981.961 276.945 982.547 281.586 982.547 287.117V335H958.781V287.117C958.781 283.977 958.406 281.609 957.656 280.016C956.953 278.375 955.922 277.273 954.562 276.711C953.203 276.102 951.586 275.797 949.711 275.797C947.461 275.797 945.516 276.266 943.875 277.203C942.234 278.141 940.852 279.453 939.727 281.141C938.648 282.781 937.852 284.727 937.336 286.977C936.82 289.227 936.562 291.688 936.562 294.359ZM1055.88 273.547V364.25H1032.19V258.922H1054.27L1055.88 273.547ZM1102.57 296.047V297.523C1102.57 303.055 1101.94 308.188 1100.67 312.922C1099.41 317.656 1097.53 321.781 1095.05 325.297C1092.56 328.812 1089.47 331.555 1085.77 333.523C1082.11 335.445 1077.87 336.406 1073.04 336.406C1068.49 336.406 1064.58 335.398 1061.3 333.383C1058.02 331.367 1055.27 328.578 1053.07 325.016C1050.87 321.453 1049.09 317.375 1047.73 312.781C1046.37 308.188 1045.29 303.336 1044.49 298.227V296.328C1045.29 290.844 1046.37 285.758 1047.73 281.07C1049.09 276.336 1050.87 272.211 1053.07 268.695C1055.27 265.18 1057.99 262.438 1061.23 260.469C1064.51 258.5 1068.42 257.516 1072.97 257.516C1077.8 257.516 1082.04 258.43 1085.7 260.258C1089.4 262.086 1092.49 264.711 1094.98 268.133C1097.51 271.508 1099.41 275.562 1100.67 280.297C1101.94 285.031 1102.57 290.281 1102.57 296.047ZM1078.88 297.523V296.047C1078.88 293.094 1078.66 290.398 1078.24 287.961C1077.82 285.477 1077.14 283.32 1076.2 281.492C1075.31 279.664 1074.12 278.258 1072.62 277.273C1071.12 276.289 1069.27 275.797 1067.06 275.797C1064.53 275.797 1062.4 276.195 1060.66 276.992C1058.98 277.742 1057.62 278.914 1056.59 280.508C1055.6 282.055 1054.9 284 1054.48 286.344C1054.1 288.641 1053.94 291.336 1053.98 294.43V300.195C1053.89 303.758 1054.24 306.898 1055.04 309.617C1055.84 312.289 1057.22 314.375 1059.19 315.875C1061.16 317.375 1063.83 318.125 1067.2 318.125C1069.45 318.125 1071.33 317.609 1072.83 316.578C1074.33 315.5 1075.52 314.023 1076.41 312.148C1077.3 310.227 1077.94 308.023 1078.31 305.539C1078.69 303.055 1078.88 300.383 1078.88 297.523ZM1137.02 277.766V335H1113.33V258.922H1135.48L1137.02 277.766ZM1159.52 258.359L1159.1 280.367C1158.16 280.273 1156.9 280.156 1155.3 280.016C1153.71 279.875 1152.38 279.805 1151.3 279.805C1148.53 279.805 1146.14 280.133 1144.12 280.789C1142.16 281.398 1140.52 282.336 1139.2 283.602C1137.94 284.82 1137 286.367 1136.39 288.242C1135.83 290.117 1135.57 292.297 1135.62 294.781L1131.33 291.969C1131.33 286.859 1131.82 282.219 1132.8 278.047C1133.84 273.828 1135.29 270.195 1137.16 267.148C1139.04 264.055 1141.31 261.688 1143.98 260.047C1146.66 258.359 1149.66 257.516 1152.98 257.516C1154.16 257.516 1155.3 257.586 1156.43 257.727C1157.6 257.867 1158.63 258.078 1159.52 258.359ZM1162.2 297.734V296.258C1162.2 290.68 1162.99 285.547 1164.59 280.859C1166.18 276.125 1168.52 272.023 1171.62 268.555C1174.71 265.086 1178.53 262.391 1183.08 260.469C1187.62 258.5 1192.88 257.516 1198.83 257.516C1204.83 257.516 1210.1 258.5 1214.65 260.469C1219.24 262.391 1223.09 265.086 1226.18 268.555C1229.27 272.023 1231.62 276.125 1233.21 280.859C1234.8 285.547 1235.6 290.68 1235.6 296.258V297.734C1235.6 303.266 1234.8 308.398 1233.21 313.133C1231.62 317.82 1229.27 321.922 1226.18 325.438C1223.09 328.906 1219.27 331.602 1214.72 333.523C1210.17 335.445 1204.92 336.406 1198.97 336.406C1193.02 336.406 1187.74 335.445 1183.15 333.523C1178.55 331.602 1174.71 328.906 1171.62 325.438C1168.52 321.922 1166.18 317.82 1164.59 313.133C1162.99 308.398 1162.2 303.266 1162.2 297.734ZM1185.89 296.258V297.734C1185.89 300.594 1186.1 303.266 1186.52 305.75C1186.95 308.234 1187.65 310.414 1188.63 312.289C1189.62 314.117 1190.95 315.547 1192.64 316.578C1194.33 317.609 1196.44 318.125 1198.97 318.125C1201.45 318.125 1203.52 317.609 1205.16 316.578C1206.84 315.547 1208.18 314.117 1209.16 312.289C1210.15 310.414 1210.85 308.234 1211.27 305.75C1211.7 303.266 1211.91 300.594 1211.91 297.734V296.258C1211.91 293.492 1211.7 290.891 1211.27 288.453C1210.85 285.969 1210.15 283.789 1209.16 281.914C1208.18 279.992 1206.84 278.492 1205.16 277.414C1203.47 276.336 1201.36 275.797 1198.83 275.797C1196.34 275.797 1194.26 276.336 1192.57 277.414C1190.93 278.492 1189.62 279.992 1188.63 281.914C1187.65 283.789 1186.95 285.969 1186.52 288.453C1186.1 290.891 1185.89 293.492 1185.89 296.258ZM1247.91 258.922H1271.67V337.461C1271.67 343.555 1270.5 348.688 1268.16 352.859C1265.81 357.078 1262.46 360.266 1258.1 362.422C1253.74 364.625 1248.54 365.727 1242.49 365.727C1240.48 365.727 1238.62 365.633 1236.94 365.445C1235.2 365.305 1233.3 365 1231.24 364.531V346.602C1232.46 346.789 1233.59 346.93 1234.62 347.023C1235.65 347.164 1236.77 347.234 1237.99 347.234C1240.15 347.234 1241.95 346.883 1243.41 346.18C1244.86 345.477 1245.96 344.398 1246.71 342.945C1247.51 341.492 1247.91 339.664 1247.91 337.461V258.922ZM1246.15 239.305C1246.15 235.93 1247.37 233.164 1249.8 231.008C1252.24 228.852 1255.41 227.773 1259.3 227.773C1263.19 227.773 1266.35 228.852 1268.79 231.008C1271.23 233.164 1272.45 235.93 1272.45 239.305C1272.45 242.68 1271.23 245.445 1268.79 247.602C1266.35 249.758 1263.19 250.836 1259.3 250.836C1255.41 250.836 1252.24 249.758 1249.8 247.602C1247.37 245.445 1246.15 242.68 1246.15 239.305ZM1321.95 336.406C1315.76 336.406 1310.23 335.445 1305.35 333.523C1300.48 331.555 1296.35 328.859 1292.98 325.438C1289.65 322.016 1287.09 318.078 1285.31 313.625C1283.58 309.172 1282.71 304.461 1282.71 299.492V296.82C1282.71 291.242 1283.48 286.086 1285.03 281.352C1286.58 276.57 1288.88 272.398 1291.92 268.836C1294.97 265.273 1298.79 262.508 1303.38 260.539C1307.98 258.523 1313.32 257.516 1319.41 257.516C1324.8 257.516 1329.63 258.383 1333.9 260.117C1338.16 261.852 1341.77 264.336 1344.73 267.57C1347.73 270.805 1350 274.719 1351.55 279.312C1353.14 283.906 1353.94 289.062 1353.94 294.781V304.414H1291.78V289.578H1330.8V287.75C1330.85 285.219 1330.41 283.062 1329.47 281.281C1328.58 279.5 1327.27 278.141 1325.53 277.203C1323.8 276.266 1321.69 275.797 1319.2 275.797C1316.62 275.797 1314.49 276.359 1312.8 277.484C1311.16 278.609 1309.88 280.156 1308.94 282.125C1308.05 284.047 1307.41 286.273 1307.04 288.805C1306.66 291.336 1306.48 294.008 1306.48 296.82V299.492C1306.48 302.305 1306.85 304.859 1307.6 307.156C1308.4 309.453 1309.52 311.422 1310.98 313.062C1312.48 314.656 1314.26 315.898 1316.32 316.789C1318.43 317.68 1320.82 318.125 1323.49 318.125C1326.73 318.125 1329.91 317.516 1333.05 316.297C1336.2 315.078 1338.89 313.062 1341.14 310.25L1351.9 323.047C1350.35 325.25 1348.15 327.383 1345.29 329.445C1342.48 331.508 1339.1 333.195 1335.16 334.508C1331.23 335.773 1326.82 336.406 1321.95 336.406ZM1395.7 318.125C1397.91 318.125 1399.78 317.727 1401.33 316.93C1402.92 316.086 1404.12 314.914 1404.91 313.414C1405.76 311.867 1406.16 310.016 1406.11 307.859H1428.4C1428.45 313.578 1427.04 318.594 1424.18 322.906C1421.37 327.172 1417.52 330.5 1412.65 332.891C1407.82 335.234 1402.36 336.406 1396.27 336.406C1390.31 336.406 1385.11 335.445 1380.66 333.523C1376.2 331.555 1372.48 328.836 1369.48 325.367C1366.52 321.852 1364.3 317.75 1362.8 313.062C1361.34 308.375 1360.62 303.289 1360.62 297.805V296.188C1360.62 290.703 1361.34 285.617 1362.8 280.93C1364.3 276.195 1366.52 272.094 1369.48 268.625C1372.48 265.109 1376.18 262.391 1380.59 260.469C1385.04 258.5 1390.22 257.516 1396.12 257.516C1402.45 257.516 1408.03 258.711 1412.86 261.102C1417.73 263.492 1421.55 266.961 1424.32 271.508C1427.09 276.055 1428.45 281.562 1428.4 288.031H1406.11C1406.16 285.734 1405.8 283.672 1405.05 281.844C1404.3 280.016 1403.13 278.562 1401.54 277.484C1399.99 276.359 1398 275.797 1395.56 275.797C1393.12 275.797 1391.16 276.336 1389.66 277.414C1388.16 278.492 1387.01 279.992 1386.21 281.914C1385.46 283.789 1384.95 285.945 1384.66 288.383C1384.43 290.82 1384.31 293.422 1384.31 296.188V297.805C1384.31 300.617 1384.43 303.266 1384.66 305.75C1384.95 308.188 1385.48 310.344 1386.28 312.219C1387.08 314.047 1388.23 315.5 1389.73 316.578C1391.23 317.609 1393.22 318.125 1395.7 318.125ZM1478.6 258.922V275.375H1432.76V258.922H1478.6ZM1442.39 240.008H1466.09V310.18C1466.09 312.195 1466.32 313.766 1466.79 314.891C1467.26 315.969 1468.05 316.742 1469.18 317.211C1470.35 317.633 1471.9 317.844 1473.82 317.844C1475.18 317.844 1476.3 317.82 1477.2 317.773C1478.09 317.68 1478.93 317.562 1479.73 317.422V334.367C1477.71 335.023 1475.6 335.516 1473.4 335.844C1471.2 336.219 1468.85 336.406 1466.37 336.406C1461.3 336.406 1456.97 335.609 1453.36 334.016C1449.8 332.422 1447.08 329.914 1445.2 326.492C1443.33 323.07 1442.39 318.617 1442.39 313.133V240.008Z" fill="black"/>
<path d="M229.205 291.934H12.4227C6.03731 291.934 0.860962 297.11 0.860962 303.495V322.282C0.860962 328.668 6.03731 333.844 12.4227 333.844H229.205C235.59 333.844 240.766 328.668 240.766 322.282V303.495C240.766 297.11 235.59 291.934 229.205 291.934Z" fill="black"/>
<path d="M456.178 264.852L444.4 254.175L411.146 290.86L422.925 301.536L456.178 264.852Z" fill="black" stroke="white" stroke-width="2.229"/>
<path d="M471.53 257.428L459.168 267.422L490.298 305.926L502.66 295.932L471.53 257.428Z" fill="black" stroke="white" stroke-width="2.229"/>
<path d="M474.896 241.152L444.724 246.983L391.561 58.547L455.413 46.2071L474.896 241.152Z" fill="black"/>
<path d="M435.763 229.5C446.449 218.185 464.816 217.097 476.132 227.783C487.448 238.47 487.958 256.306 477.272 267.621C466.586 278.936 448.749 279.446 437.434 268.76C426.281 258.227 425.601 240.71 435.903 229.345" fill="black"/>
<path d="M435.763 229.5C446.449 218.185 464.816 217.097 476.132 227.783C487.448 238.47 487.958 256.306 477.272 267.621C466.586 278.936 448.749 279.446 437.434 268.76C426.281 258.227 425.601 240.71 435.903 229.345" stroke="white" stroke-width="6"/>
<path d="M413.318 292.18L425.681 282.185L451.23 326.846L444.449 330.684L413.318 292.18Z" fill="black"/>
<path d="M502.506 296.854L490.149 286.853L464.577 331.499L471.356 335.341L502.506 296.854Z" fill="black"/>
<path d="M428.884 67.6963L392.341 22.8219L146.819 222.747L183.362 267.621L428.884 67.6963Z" fill="black"/>
<path d="M378 44C378.457 21.6566 396.949 2.55214 419.293 3.00863C441.637 3.46513 459.38 21.9481 458.924 44.2915C458.467 66.6349 439.984 84.3778 417.639 83.9213C395.617 83.4714 378 65.4909 378 43.465" fill="black"/>
<path d="M378 44C378.457 21.6566 396.949 2.55214 419.293 3.00863C441.637 3.46513 459.38 21.9481 458.924 44.2915C458.467 66.6349 439.984 84.3778 417.639 83.9213C395.617 83.4714 378 65.4909 378 43.465" stroke="white" stroke-width="6"/>
<path d="M148.44 238H81.56C75.7279 238 71 243.588 71 250.48V277.52C71 284.413 75.7279 290 81.56 290H148.44C154.272 290 159 284.413 159 277.52V250.48C159 243.588 154.272 238 148.44 238Z" fill="black"/>
<path d="M103.805 231.625H144.094C151.969 231.625 158.812 232.797 164.625 235.141C170.438 237.484 174.914 240.953 178.055 245.547C181.242 250.141 182.836 255.813 182.836 262.563C182.836 268.422 181.922 273.32 180.094 277.258C178.266 281.195 175.711 284.453 172.43 287.031C169.195 289.563 165.422 291.648 161.109 293.289L153.023 297.859H119.203L119.062 278.805H144.094C147.234 278.805 149.836 278.242 151.898 277.117C153.961 275.992 155.508 274.398 156.539 272.336C157.617 270.227 158.156 267.719 158.156 264.813C158.156 261.859 157.617 259.328 156.539 257.219C155.461 255.109 153.867 253.492 151.758 252.367C149.695 251.242 147.141 250.68 144.094 250.68H128.484V334H103.805V231.625ZM159.844 334L137.203 288.719L163.359 288.578L186.281 332.945V334H159.844Z" fill="white"/>
<path d="M110.632 246.204C111.138 221.467 131.608 200.392 156.346 200.898C181.084 201.403 200.729 221.866 200.223 246.604C199.718 271.341 179.254 290.985 154.516 290.479C130.134 289.981 110.629 270.074 110.629 245.689" fill="black"/>
<path d="M110.632 246.204C111.138 221.467 131.608 200.392 156.346 200.898C181.084 201.403 200.729 221.866 200.223 246.604C199.718 271.341 179.254 290.985 154.516 290.479C130.134 289.981 110.629 270.074 110.629 245.689" stroke="white" stroke-width="18"/>
</svg>
